<svg xmlns="http://www.w3.org/2000/svg" width="954" height="900" viewBox="0 0 954 900">
  <g id="Graphic" transform="translate(-947 -48)">
    <circle id="_16" data-name="16" cx="14" cy="14" r="14" transform="translate(1587 115)" fill="#e0eec9"/>
    <circle id="_15" data-name="15" cx="14" cy="14" r="14" transform="translate(1687 165)" fill="#e0eec9"/>
    <circle id="_14" data-name="14" cx="14" cy="14" r="14" transform="translate(1347 175)" fill="#e0eec9"/>
    <circle id="_13" data-name="13" cx="14" cy="14" r="14" transform="translate(1485 179)" fill="#e0eec9"/>
    <circle id="_12" data-name="12" cx="14" cy="14" r="14" transform="translate(1729 48)" fill="#e0eec9"/>
    <ellipse id="_11" data-name="11" cx="13.5" cy="14" rx="13.5" ry="14" transform="translate(1790 823)" fill="#e0eec9"/>
    <ellipse id="_10" data-name="10" cx="13.5" cy="14" rx="13.5" ry="14" transform="translate(1674 808)" fill="#e0eec9"/>
    <ellipse id="_9" data-name="9" cx="13.5" cy="14" rx="13.5" ry="14" transform="translate(1573 837)" fill="#e0eec9"/>
    <ellipse id="_8" data-name="8" cx="13.5" cy="14" rx="13.5" ry="14" transform="translate(1458 920)" fill="#e0eec9"/>
    <ellipse id="_7" data-name="7" cx="13.5" cy="14" rx="13.5" ry="14" transform="translate(1419 794)" fill="#e0eec9"/>
    <ellipse id="_6" data-name="6" cx="13.5" cy="14" rx="13.5" ry="14" transform="translate(1125 794)" fill="#e0eec9"/>
    <ellipse id="_5" data-name="5" cx="13.5" cy="14" rx="13.5" ry="14" transform="translate(1006 475)" fill="#e0eec9"/>
    <ellipse id="_4" data-name="4" cx="13.5" cy="14" rx="13.5" ry="14" transform="translate(1046 408)" fill="#e0eec9"/>
    <ellipse id="_3" data-name="3" cx="13.5" cy="14" rx="13.5" ry="14" transform="translate(1125 408)" fill="#e0eec9"/>
    <ellipse id="_2" data-name="2" cx="13.5" cy="14" rx="13.5" ry="14" transform="translate(1874 515)" fill="#e0eec9"/>
    <ellipse id="_1" data-name="1" cx="13.5" cy="14" rx="13.5" ry="14" transform="translate(947 597)" fill="#e0eec9"/>
  </g>
</svg>
