<svg xmlns="http://www.w3.org/2000/svg" width="1754.8" height="1773.817" viewBox="0 0 1754.8 1773.817">
  <g id="Group_266" data-name="Group 266" transform="translate(-759.157 414.182)">
    <path id="Path_1" data-name="Path 1" d="M143.786,239.345C365.908,23.2,991.711,319.516,991.711,687.87s-547.63,825.272-825.462,825.272-452.173-306.707-222.563-662.6S-78.336,455.486,143.786,239.345Z" transform="translate(1874.508 -432.968) rotate(41)" fill="#ecf4de"/>
    <path id="Path_2" data-name="Path 2" d="M230.5,0C357.8,0,680.667,453.88,680.667,640S357.8,674,230.5,674,112.667,543.453,112.667,357.333,103.2,0,230.5,0Z" transform="translate(1973.12 157.405) rotate(93)" fill="#f06a21"/>
    <path id="Path_3" data-name="Path 3" d="M199.487,0c93.842,0,331.846,334.584,331.846,471.784s-238,25.064-331.846,25.064-86.863-96.234-86.863-233.435S105.645,0,199.487,0Z" transform="matrix(-0.035, 0.999, -0.999, -0.035, 1834.999, 190.249)" fill="#f06a21"/>
  </g>
</svg>
